<?xml version="1.0" standalone="no"?><svg xmlns="http://www.w3.org/2000/svg" viewBox="0 0 1440 320"><path fill="#f3f4f5" fill-opacity="1" d="M0,128L30,149.3C60,171,120,213,180,240C240,267,300,277,360,272C420,267,480,245,540,202.7C600,160,660,96,720,80C780,64,840,96,900,122.7C960,149,1020,171,1080,176C1140,181,1200,171,1260,149.3C1320,128,1380,96,1410,80L1440,64L1440,0L1410,0C1380,0,1320,0,1260,0C1200,0,1140,0,1080,0C1020,0,960,0,900,0C840,0,780,0,720,0C660,0,600,0,540,0C480,0,420,0,360,0C300,0,240,0,180,0C120,0,60,0,30,0L0,0Z"></path></svg>